<svg xmlns="http://www.w3.org/2000/svg" xmlns:xlink="http://www.w3.org/1999/xlink" version="1.1" x="0px" y="0px" viewBox="0 0 72 90" enable-background="new 0 0 72 72" xml:space="preserve"><g><path fill="#000000" d="M57.7,70.8l13.2-7.1c0.1,0,0.1-0.1,0.1-0.2v-57c0-0.2-0.2-0.3-0.3-0.2l-13.2,7.1c-0.1,0-0.1,0.1-0.1,0.2v57   C57.4,70.8,57.6,70.9,57.7,70.8z"/><path fill="#000000" d="M27.3,7.7l28.5,3.9c0,0,0.1,0,0.1,0l11.7-6.2c0.2-0.1,0.1-0.4-0.1-0.4L39.2,1c0,0-0.1,0-0.1,0L27.2,7.3   C27.1,7.4,27.1,7.7,27.3,7.7z"/><path fill="#000000" d="M14.3,8.6L4,14c-0.2,0.1-0.1,0.4,0.1,0.4l17.6,2.4c0.1,0,0.3-0.1,0.3-0.2V9.9c0-0.1-0.1-0.2-0.2-0.2   l-7.4-1.1C14.4,8.6,14.3,8.6,14.3,8.6z"/><path fill="#000000" d="M24.5,10V67c0,0.1,0.1,0.2,0.2,0.2l5.7,0.7c0.1,0,0.3-0.1,0.3-0.2V55.1c0-0.1,0.1-0.2,0.3-0.2l16.6,2.4   c0.1,0,0.2,0.1,0.2,0.2v12.5c0,0.1,0.1,0.2,0.2,0.2l6.7,0.8c0.1,0,0.3-0.1,0.3-0.2V13.7c0-0.1-0.1-0.2-0.2-0.2L24.7,9.7   C24.6,9.7,24.5,9.8,24.5,10z M35.8,48.4l-7.3-0.8c-0.1,0-0.2-0.1-0.2-0.2v-4.4c0-0.1,0.1-0.2,0.3-0.2l7.3,0.8   c0.1,0,0.2,0.1,0.2,0.2v4.4C36.1,48.3,36,48.4,35.8,48.4z M35.8,35.6l-7.3-0.8c-0.1,0-0.2-0.1-0.2-0.2v-4.4c0-0.1,0.1-0.2,0.3-0.2   l7.3,0.8c0.1,0,0.2,0.1,0.2,0.2v4.4C36.1,35.5,36,35.6,35.8,35.6z M35.8,22.8L28.6,22c-0.1,0-0.2-0.1-0.2-0.2v-4.4   c0-0.1,0.1-0.2,0.3-0.2l7.3,0.8c0.1,0,0.2,0.1,0.2,0.2v4.4C36.1,22.7,36,22.8,35.8,22.8z M50.7,50l-8.2-0.9c-0.1,0-0.2-0.1-0.2-0.2   v-4.4c0-0.1,0.1-0.2,0.3-0.2l8.2,0.9c0.1,0,0.2,0.1,0.2,0.2v4.4C51,49.9,50.9,50,50.7,50z M50.7,37.2l-8.2-0.9   c-0.1,0-0.2-0.1-0.2-0.2v-4.4c0-0.1,0.1-0.2,0.3-0.2l8.2,0.9c0.1,0,0.2,0.1,0.2,0.2V37C51,37.1,50.9,37.2,50.7,37.2z M50.7,24.5   l-8.2-0.9c-0.1,0-0.2-0.1-0.2-0.2v-4.4c0-0.1,0.1-0.2,0.3-0.2l8.2,0.9c0.1,0,0.2,0.1,0.2,0.2v4.4C51,24.4,50.9,24.5,50.7,24.5z"/><path fill="#000000" d="M6,57v-3.6c0-0.1,0.1-0.2,0.3-0.2l15.5,2c0.1,0,0.3-0.1,0.3-0.2v-4.9c0-0.1-0.1-0.2-0.2-0.2l-15.6-2   c-0.1,0-0.2-0.1-0.2-0.2V44c0-0.1,0.1-0.2,0.3-0.2l15.5,2c0.1,0,0.3-0.1,0.3-0.2v-4.9c0-0.1-0.1-0.2-0.2-0.2l-15.6-2   c-0.1,0-0.2-0.1-0.2-0.2v-3.6c0-0.1,0.1-0.2,0.3-0.2l15.5,2c0.1,0,0.3-0.1,0.3-0.2v-6.4c0-0.1-0.1-0.2-0.2-0.2l-15.6-2   c-0.1,0-0.2-0.1-0.2-0.2v-3.6c0-0.1,0.1-0.2,0.3-0.2l15.5,2c0.1,0,0.3-0.1,0.3-0.2v-5.9c0-0.1-0.1-0.2-0.2-0.2L1.3,16.2   c-0.1,0-0.3,0.1-0.3,0.2v46.5c0,0.1,0.1,0.2,0.2,0.2L21.8,66c0.1,0,0.3-0.1,0.3-0.2v-6.3c0-0.1-0.1-0.2-0.2-0.2l-15.6-2   C6.1,57.2,6,57.1,6,57z"/></g></svg>