<svg xmlns="http://www.w3.org/2000/svg" xmlns:xlink="http://www.w3.org/1999/xlink" version="1.1" x="0px" y="0px" viewBox="0 0 100 125" style="enable-background:new 0 0 100 100;" xml:space="preserve"><g><g><path d="M66.2,43.1c-3.9,4.2-9.5,6.9-15.7,6.9s-11.8-2.7-15.7-6.9c-3.6,2.2-5.8,5-5.8,8.2c0,20,9.6,36.2,21.5,36.2    C62.4,87.6,72,71.4,72,51.3C72,48.2,69.8,45.3,66.2,43.1L66.2,43.1z M50.5,44.6c8.9,0,16.1-7.2,16.1-16.1    c0-8.9-7.2-16.1-16.1-16.1c-8.9,0-16.1,7.2-16.1,16.1C34.4,37.4,41.6,44.6,50.5,44.6L50.5,44.6z"/></g></g></svg>