<svg xmlns="http://www.w3.org/2000/svg" xmlns:xlink="http://www.w3.org/1999/xlink" version="1.1" x="0px" y="0px" viewBox="0 0 48 60" enable-background="new 0 0 48 48" xml:space="preserve"><g><path d="M38.218,24c0-7.839-6.378-14.217-14.217-14.217C16.16,9.783,9.782,16.161,9.782,24c0,7.839,6.378,14.217,14.219,14.217   C31.84,38.217,38.218,31.839,38.218,24z M24.753,31.959v2.7h-1.636v-2.622c-1.506-0.026-3.063-0.493-3.974-1.144l0.624-1.739   c0.936,0.622,2.285,1.116,3.74,1.116c1.843,0,3.089-1.064,3.089-2.544c0-1.429-1.013-2.312-2.934-3.09   c-2.648-1.039-4.284-2.233-4.284-4.493c0-2.154,1.531-3.791,3.92-4.18v-2.622h1.61v2.518c1.557,0.053,2.623,0.468,3.375,0.909   l-0.647,1.713c-0.547-0.311-1.61-0.882-3.272-0.882c-1.999,0-2.753,1.194-2.753,2.233c0,1.35,0.961,2.025,3.221,2.959   c2.674,1.091,4.024,2.441,4.024,4.753C28.856,29.595,27.428,31.517,24.753,31.959z"/><path d="M21.687,8.457V4.513c0-0.14-0.113-0.252-0.252-0.252H9.175V0.253c0-0.103-0.062-0.195-0.156-0.233   C8.923-0.019,8.815,0.001,8.743,0.074L0.074,8.744c-0.099,0.099-0.099,0.258,0,0.357l8.669,8.669   c0.049,0.048,0.112,0.074,0.179,0.074c0.033,0,0.065-0.006,0.097-0.02c0.095-0.039,0.156-0.131,0.156-0.233v-4.008h3.067   C14.64,10.879,17.947,9.012,21.687,8.457z"/><path d="M47.926,38.899l-8.669-8.67c-0.072-0.072-0.181-0.094-0.275-0.055s-0.156,0.132-0.156,0.234v4.008h-3.066   c-2.398,2.704-5.706,4.572-9.445,5.127v3.943c0,0.139,0.113,0.252,0.252,0.252h12.26v4.008c0,0.103,0.062,0.195,0.156,0.234   C39.013,47.993,39.045,48,39.078,48c0.066,0,0.13-0.025,0.179-0.074l8.669-8.669C48.024,39.157,48.024,38.998,47.926,38.899z"/></g></svg>